<svg id="Layer_1" data-name="Layer 1" xmlns="http://www.w3.org/2000/svg" viewBox="0 0 500 500"><defs><style>.cls-1{fill:#fff;}.cls-2{opacity:0.15;}.cls-3,.cls-4{fill:none;stroke:#000;stroke-linecap:round;stroke-linejoin:round;}.cls-3{stroke-width:20.67px;}.cls-4{stroke-width:20px;}</style></defs><title>baseball</title><path class="cls-1" d="M249.63,12.9c-131,0-237.3,106.24-237.3,237.3s106.25,237.3,237.3,237.3S486.94,381.26,486.94,250.2,380.69,12.9,249.63,12.9Z"/><path class="cls-2" d="M390.2,59a236.11,236.11,0,0,1,36.52,126.51c0,131.06-106.25,237.3-237.31,237.3A236.17,236.17,0,0,1,48.85,376.71,237.11,237.11,0,0,0,249.63,487.5c131.06,0,237.31-106.24,237.31-237.3A236.93,236.93,0,0,0,390.2,59Z"/><path class="cls-3" d="M58.93,109.71c40.2,33.56,79.57,84,79.57,140.49S99.13,357.13,58.93,390.69"/><line class="cls-3" x1="159.68" y1="250.2" x2="115.96" y2="250.2"/><line class="cls-3" x1="140.56" y1="341.42" x2="102.52" y2="319.89"/><line class="cls-3" x1="140.56" y1="158.98" x2="102.52" y2="180.51"/><path class="cls-3" d="M440.34,109.71c-40.21,33.56-79.57,84-79.57,140.49s39.36,106.93,79.57,140.49"/><line class="cls-3" x1="339.59" y1="250.2" x2="383.31" y2="250.2"/><line class="cls-3" x1="358.7" y1="341.42" x2="396.75" y2="319.89"/><line class="cls-3" x1="358.7" y1="158.98" x2="396.75" y2="180.51"/><path class="cls-4" d="M249.63,12.9c-131,0-237.3,106.24-237.3,237.3s106.25,237.3,237.3,237.3S486.94,381.26,486.94,250.2,380.69,12.9,249.63,12.9Z"/></svg>